<svg id="visual" viewBox="0 0 960 540" width="960" height="540" xmlns="http://www.w3.org/2000/svg" xmlns:xlink="http://www.w3.org/1999/xlink" version="1.1"><rect x="0" y="0" width="960" height="540" fill="#fff"></rect><defs><linearGradient id="grad1_0" x1="43.8%" y1="0%" x2="100%" y2="100%"><stop offset="14.444444444444446%" stop-color="#ccccdd" stop-opacity="1"></stop><stop offset="85.55555555555554%" stop-color="#ccccdd" stop-opacity="1"></stop></linearGradient></defs><defs><linearGradient id="grad1_1" x1="43.8%" y1="0%" x2="100%" y2="100%"><stop offset="14.444444444444446%" stop-color="#ccccdd" stop-opacity="1"></stop><stop offset="85.55555555555554%" stop-color="#d9d9e5" stop-opacity="1"></stop></linearGradient></defs><defs><linearGradient id="grad1_2" x1="43.8%" y1="0%" x2="100%" y2="100%"><stop offset="14.444444444444446%" stop-color="#e5e5ee" stop-opacity="1"></stop><stop offset="85.55555555555554%" stop-color="#d9d9e5" stop-opacity="1"></stop></linearGradient></defs><defs><linearGradient id="grad1_3" x1="43.8%" y1="0%" x2="100%" y2="100%"><stop offset="14.444444444444446%" stop-color="#e5e5ee" stop-opacity="1"></stop><stop offset="85.55555555555554%" stop-color="#f2f2f6" stop-opacity="1"></stop></linearGradient></defs><defs><linearGradient id="grad1_4" x1="43.8%" y1="0%" x2="100%" y2="100%"><stop offset="14.444444444444446%" stop-color="#ffffff" stop-opacity="1"></stop><stop offset="85.55555555555554%" stop-color="#f2f2f6" stop-opacity="1"></stop></linearGradient></defs><defs><linearGradient id="grad2_0" x1="0%" y1="0%" x2="56.3%" y2="100%"><stop offset="14.444444444444446%" stop-color="#ccccdd" stop-opacity="1"></stop><stop offset="85.55555555555554%" stop-color="#ccccdd" stop-opacity="1"></stop></linearGradient></defs><defs><linearGradient id="grad2_1" x1="0%" y1="0%" x2="56.3%" y2="100%"><stop offset="14.444444444444446%" stop-color="#d9d9e5" stop-opacity="1"></stop><stop offset="85.55555555555554%" stop-color="#ccccdd" stop-opacity="1"></stop></linearGradient></defs><defs><linearGradient id="grad2_2" x1="0%" y1="0%" x2="56.3%" y2="100%"><stop offset="14.444444444444446%" stop-color="#d9d9e5" stop-opacity="1"></stop><stop offset="85.55555555555554%" stop-color="#e5e5ee" stop-opacity="1"></stop></linearGradient></defs><defs><linearGradient id="grad2_3" x1="0%" y1="0%" x2="56.3%" y2="100%"><stop offset="14.444444444444446%" stop-color="#f2f2f6" stop-opacity="1"></stop><stop offset="85.55555555555554%" stop-color="#e5e5ee" stop-opacity="1"></stop></linearGradient></defs><defs><linearGradient id="grad2_4" x1="0%" y1="0%" x2="56.3%" y2="100%"><stop offset="14.444444444444446%" stop-color="#f2f2f6" stop-opacity="1"></stop><stop offset="85.55555555555554%" stop-color="#ffffff" stop-opacity="1"></stop></linearGradient></defs><g transform="translate(960, 0)"><path d="M0 432C-47.9 399.7 -95.9 367.5 -142.7 344.6C-189.6 321.7 -235.3 308.3 -281.4 281.4C-327.5 254.6 -374 214.4 -399.1 165.3C-424.3 116.2 -428.1 58.1 -432 0L0 0Z" fill="#f9f9fb"></path><path d="M0 345.6C-38.4 319.8 -76.7 294 -114.2 275.7C-151.7 257.4 -188.3 246.6 -225.1 225.1C-262 203.7 -299.2 171.6 -319.3 132.3C-339.4 93 -342.5 46.5 -345.6 0L0 0Z" fill="#ececf2"></path><path d="M0 259.2C-28.8 239.8 -57.5 220.5 -85.6 206.8C-113.8 193 -141.2 185 -168.9 168.9C-196.5 152.8 -224.4 128.7 -239.5 99.2C-254.6 69.7 -256.9 34.9 -259.2 0L0 0Z" fill="#dfdfea"></path><path d="M0 172.8C-19.2 159.9 -38.4 147 -57.1 137.8C-75.8 128.7 -94.1 123.3 -112.6 112.6C-131 101.8 -149.6 85.8 -159.6 66.1C-169.7 46.5 -171.3 23.2 -172.8 0L0 0Z" fill="#d2d2e1"></path><path d="M0 86.4C-9.6 79.9 -19.2 73.5 -28.5 68.9C-37.9 64.3 -47.1 61.7 -56.3 56.3C-65.5 50.9 -74.8 42.9 -79.8 33.1C-84.9 23.2 -85.6 11.6 -86.4 0L0 0Z" fill="#ccccdd"></path></g><g transform="translate(0, 540)"><path d="M0 -432C43 -386.7 86 -341.4 132 -318.7C178 -296.1 227 -296.1 275.8 -275.8C324.5 -255.4 373.1 -214.7 399.1 -165.3C425.1 -116 428.6 -58 432 0L0 0Z" fill="#f9f9fb"></path><path d="M0 -345.6C34.4 -309.4 68.8 -273.1 105.6 -255C142.4 -236.9 181.6 -236.9 220.6 -220.6C259.6 -204.3 298.5 -171.7 319.3 -132.3C340.1 -92.8 342.8 -46.4 345.6 0L0 0Z" fill="#ececf2"></path><path d="M0 -259.2C25.8 -232 51.6 -204.8 79.2 -191.2C106.8 -177.7 136.2 -177.7 165.5 -165.5C194.7 -153.3 223.9 -128.8 239.5 -99.2C255.1 -69.6 257.1 -34.8 259.2 0L0 0Z" fill="#dfdfea"></path><path d="M0 -172.8C17.2 -154.7 34.4 -136.6 52.8 -127.5C71.2 -118.4 90.8 -118.5 110.3 -110.3C129.8 -102.2 149.2 -85.9 159.6 -66.1C170 -46.4 171.4 -23.2 172.8 0L0 0Z" fill="#d2d2e1"></path><path d="M0 -86.4C8.6 -77.3 17.2 -68.3 26.4 -63.7C35.6 -59.2 45.4 -59.2 55.2 -55.2C64.9 -51.1 74.6 -42.9 79.8 -33.1C85 -23.2 85.7 -11.6 86.4 0L0 0Z" fill="#ccccdd"></path></g></svg>