<svg id="visual" viewBox="0 0 900 600" width="900" height="600" xmlns="http://www.w3.org/2000/svg" xmlns:xlink="http://www.w3.org/1999/xlink" version="1.1"><rect x="0" y="0" width="900" height="600" fill="#fff"></rect><defs><linearGradient id="grad1_0" x1="33.3%" y1="0%" x2="100%" y2="100%"><stop offset="20%" stop-color="#ccccdd" stop-opacity="1"></stop><stop offset="80%" stop-color="#ccccdd" stop-opacity="1"></stop></linearGradient></defs><defs><linearGradient id="grad1_1" x1="33.3%" y1="0%" x2="100%" y2="100%"><stop offset="20%" stop-color="#ccccdd" stop-opacity="1"></stop><stop offset="80%" stop-color="#d9d9e5" stop-opacity="1"></stop></linearGradient></defs><defs><linearGradient id="grad1_2" x1="33.3%" y1="0%" x2="100%" y2="100%"><stop offset="20%" stop-color="#e5e5ee" stop-opacity="1"></stop><stop offset="80%" stop-color="#d9d9e5" stop-opacity="1"></stop></linearGradient></defs><defs><linearGradient id="grad1_3" x1="33.3%" y1="0%" x2="100%" y2="100%"><stop offset="20%" stop-color="#e5e5ee" stop-opacity="1"></stop><stop offset="80%" stop-color="#f2f2f6" stop-opacity="1"></stop></linearGradient></defs><defs><linearGradient id="grad1_4" x1="33.3%" y1="0%" x2="100%" y2="100%"><stop offset="20%" stop-color="#ffffff" stop-opacity="1"></stop><stop offset="80%" stop-color="#f2f2f6" stop-opacity="1"></stop></linearGradient></defs><defs><linearGradient id="grad2_0" x1="0%" y1="0%" x2="66.7%" y2="100%"><stop offset="20%" stop-color="#ccccdd" stop-opacity="1"></stop><stop offset="80%" stop-color="#ccccdd" stop-opacity="1"></stop></linearGradient></defs><defs><linearGradient id="grad2_1" x1="0%" y1="0%" x2="66.7%" y2="100%"><stop offset="20%" stop-color="#d9d9e5" stop-opacity="1"></stop><stop offset="80%" stop-color="#ccccdd" stop-opacity="1"></stop></linearGradient></defs><defs><linearGradient id="grad2_2" x1="0%" y1="0%" x2="66.7%" y2="100%"><stop offset="20%" stop-color="#d9d9e5" stop-opacity="1"></stop><stop offset="80%" stop-color="#e5e5ee" stop-opacity="1"></stop></linearGradient></defs><defs><linearGradient id="grad2_3" x1="0%" y1="0%" x2="66.7%" y2="100%"><stop offset="20%" stop-color="#f2f2f6" stop-opacity="1"></stop><stop offset="80%" stop-color="#e5e5ee" stop-opacity="1"></stop></linearGradient></defs><defs><linearGradient id="grad2_4" x1="0%" y1="0%" x2="66.7%" y2="100%"><stop offset="20%" stop-color="#f2f2f6" stop-opacity="1"></stop><stop offset="80%" stop-color="#ffffff" stop-opacity="1"></stop></linearGradient></defs><g transform="translate(900, 0)"><path d="M0 351.5C-67.6 345.9 -135.2 340.2 -175.8 304.4C-216.3 268.7 -229.8 202.8 -254.6 147C-279.4 91.2 -315.5 45.6 -351.5 0L0 0Z" fill="#f9f9fb"></path><path d="M0 281.2C-54.1 276.7 -108.2 272.2 -140.6 243.6C-173.1 214.9 -183.9 162.2 -203.7 117.6C-223.5 73 -252.4 36.5 -281.2 0L0 0Z" fill="#ececf2"></path><path d="M0 210.9C-40.6 207.5 -81.1 204.1 -105.5 182.7C-129.8 161.2 -137.9 121.7 -152.8 88.2C-167.6 54.7 -189.3 27.4 -210.9 0L0 0Z" fill="#dfdfea"></path><path d="M0 140.6C-27 138.4 -54.1 136.1 -70.3 121.8C-86.5 107.5 -91.9 81.1 -101.8 58.8C-111.8 36.5 -126.2 18.2 -140.6 0L0 0Z" fill="#d2d2e1"></path><path d="M0 70.3C-13.5 69.2 -27 68 -35.2 60.9C-43.3 53.7 -46 40.6 -50.9 29.4C-55.9 18.2 -63.1 9.1 -70.3 0L0 0Z" fill="#ccccdd"></path></g><g transform="translate(0, 600)"><path d="M0 -351.5C53.1 -328.4 106.2 -305.3 161 -278.9C215.8 -252.5 272.4 -222.8 304.4 -175.8C336.5 -128.8 344 -64.4 351.5 0L0 0Z" fill="#f9f9fb"></path><path d="M0 -281.2C42.5 -262.7 84.9 -244.2 128.8 -223.1C172.7 -202 217.9 -178.2 243.6 -140.6C269.2 -103 275.2 -51.5 281.2 0L0 0Z" fill="#ececf2"></path><path d="M0 -210.9C31.9 -197 63.7 -183.2 96.6 -167.3C129.5 -151.5 163.4 -133.7 182.7 -105.5C201.9 -77.3 206.4 -38.6 210.9 0L0 0Z" fill="#dfdfea"></path><path d="M0 -140.6C21.2 -131.4 42.5 -122.1 64.4 -111.5C86.3 -101 109 -89.1 121.8 -70.3C134.6 -51.5 137.6 -25.8 140.6 0L0 0Z" fill="#d2d2e1"></path><path d="M0 -70.3C10.6 -65.7 21.2 -61.1 32.2 -55.8C43.2 -50.5 54.5 -44.6 60.9 -35.2C67.3 -25.8 68.8 -12.9 70.3 0L0 0Z" fill="#ccccdd"></path></g></svg>