<svg id="visual" viewBox="0 0 540 960" width="540" height="960" xmlns="http://www.w3.org/2000/svg" xmlns:xlink="http://www.w3.org/1999/xlink" version="1.1"><rect x="0" y="0" width="540" height="960" fill="#fff"></rect><defs><linearGradient id="grad1_0" x1="0%" y1="0%" x2="100%" y2="100%"><stop offset="30%" stop-color="#ccccdd" stop-opacity="1"></stop><stop offset="70%" stop-color="#ccccdd" stop-opacity="1"></stop></linearGradient></defs><defs><linearGradient id="grad1_1" x1="0%" y1="0%" x2="100%" y2="100%"><stop offset="30%" stop-color="#ccccdd" stop-opacity="1"></stop><stop offset="70%" stop-color="#d9d9e5" stop-opacity="1"></stop></linearGradient></defs><defs><linearGradient id="grad1_2" x1="0%" y1="0%" x2="100%" y2="100%"><stop offset="30%" stop-color="#e5e5ee" stop-opacity="1"></stop><stop offset="70%" stop-color="#d9d9e5" stop-opacity="1"></stop></linearGradient></defs><defs><linearGradient id="grad1_3" x1="0%" y1="0%" x2="100%" y2="100%"><stop offset="30%" stop-color="#e5e5ee" stop-opacity="1"></stop><stop offset="70%" stop-color="#f2f2f6" stop-opacity="1"></stop></linearGradient></defs><defs><linearGradient id="grad1_4" x1="0%" y1="0%" x2="100%" y2="100%"><stop offset="30%" stop-color="#ffffff" stop-opacity="1"></stop><stop offset="70%" stop-color="#f2f2f6" stop-opacity="1"></stop></linearGradient></defs><defs><linearGradient id="grad2_0" x1="0%" y1="0%" x2="100%" y2="100%"><stop offset="30%" stop-color="#ccccdd" stop-opacity="1"></stop><stop offset="70%" stop-color="#ccccdd" stop-opacity="1"></stop></linearGradient></defs><defs><linearGradient id="grad2_1" x1="0%" y1="0%" x2="100%" y2="100%"><stop offset="30%" stop-color="#d9d9e5" stop-opacity="1"></stop><stop offset="70%" stop-color="#ccccdd" stop-opacity="1"></stop></linearGradient></defs><defs><linearGradient id="grad2_2" x1="0%" y1="0%" x2="100%" y2="100%"><stop offset="30%" stop-color="#d9d9e5" stop-opacity="1"></stop><stop offset="70%" stop-color="#e5e5ee" stop-opacity="1"></stop></linearGradient></defs><defs><linearGradient id="grad2_3" x1="0%" y1="0%" x2="100%" y2="100%"><stop offset="30%" stop-color="#f2f2f6" stop-opacity="1"></stop><stop offset="70%" stop-color="#e5e5ee" stop-opacity="1"></stop></linearGradient></defs><defs><linearGradient id="grad2_4" x1="0%" y1="0%" x2="100%" y2="100%"><stop offset="30%" stop-color="#f2f2f6" stop-opacity="1"></stop><stop offset="70%" stop-color="#ffffff" stop-opacity="1"></stop></linearGradient></defs><g transform="translate(540, 0)"><path d="M0 432C-63.1 432.1 -126.3 432.2 -165.3 399.1C-204.4 366 -219.3 299.6 -258.8 258.8C-298.3 218 -362.5 202.7 -395.4 163.8C-428.4 124.9 -430.2 62.5 -432 0L0 0Z" fill="#f9f9fb"></path><path d="M0 345.6C-50.5 345.7 -101 345.8 -132.3 319.3C-163.5 292.8 -175.4 239.7 -207 207C-238.7 174.4 -290 162.1 -316.3 131C-342.7 99.9 -344.2 50 -345.6 0L0 0Z" fill="#ececf2"></path><path d="M0 259.2C-37.9 259.3 -75.8 259.3 -99.2 239.5C-122.6 219.6 -131.6 179.8 -155.3 155.3C-179 130.8 -217.5 121.6 -237.3 98.3C-257 74.9 -258.1 37.5 -259.2 0L0 0Z" fill="#dfdfea"></path><path d="M0 172.8C-25.3 172.8 -50.5 172.9 -66.1 159.6C-81.7 146.4 -87.7 119.9 -103.5 103.5C-119.3 87.2 -145 81.1 -158.2 65.5C-171.4 50 -172.1 25 -172.8 0L0 0Z" fill="#d2d2e1"></path><path d="M0 86.4C-12.6 86.4 -25.3 86.4 -33.1 79.8C-40.9 73.2 -43.9 59.9 -51.8 51.8C-59.7 43.6 -72.5 40.5 -79.1 32.8C-85.7 25 -86 12.5 -86.4 0L0 0Z" fill="#ccccdd"></path></g><g transform="translate(0, 960)"><path d="M0 -432C48.6 -405 97.2 -378.1 148.9 -359.4C200.5 -340.7 255.3 -330.3 299.8 -299.8C344.4 -269.3 378.8 -218.6 399.1 -165.3C419.5 -112 425.7 -56 432 0L0 0Z" fill="#f9f9fb"></path><path d="M0 -345.6C38.9 -324 77.8 -302.5 119.1 -287.5C160.4 -272.6 204.2 -264.3 239.9 -239.9C275.5 -215.4 303 -174.9 319.3 -132.3C335.6 -89.6 340.6 -44.8 345.6 0L0 0Z" fill="#ececf2"></path><path d="M0 -259.2C29.2 -243 58.3 -226.8 89.3 -215.6C120.3 -204.4 153.2 -198.2 179.9 -179.9C206.6 -161.6 227.3 -131.2 239.5 -99.2C251.7 -67.2 255.4 -33.6 259.2 0L0 0Z" fill="#dfdfea"></path><path d="M0 -172.8C19.4 -162 38.9 -151.2 59.5 -143.8C80.2 -136.3 102.1 -132.1 119.9 -119.9C137.8 -107.7 151.5 -87.5 159.6 -66.1C167.8 -44.8 170.3 -22.4 172.8 0L0 0Z" fill="#d2d2e1"></path><path d="M0 -86.4C9.7 -81 19.4 -75.6 29.8 -71.9C40.1 -68.1 51.1 -66.1 60 -60C68.9 -53.9 75.8 -43.7 79.8 -33.1C83.9 -22.4 85.1 -11.2 86.4 0L0 0Z" fill="#ccccdd"></path></g></svg>